<svg version="1.1" id="Layer_1" xmlns="http://www.w3.org/2000/svg" x="0" y="0" viewBox="0 0 448 448" style="enable-background:new 0 0 448 448" xml:space="preserve"><style>.st0{fill:none}</style><path class="st0" d="M48 0H0v48C0 21.5 21.5 0 48 0zM400 0c26.5 0 48 21.5 48 48V0h-48zM356 184h-92V92c0-6.6-5.4-12-12-12h-56c-6.6 0-12 5.4-12 12v92H92c-6.6 0-12 5.4-12 12v56c0 6.6 5.4 12 12 12h92v92c0 6.6 5.4 12 12 12h56c6.6 0 12-5.4 12-12v-92h92c6.6 0 12-5.4 12-12v-56c0-6.6-5.4-12-12-12zM0 400v48h48c-26.5 0-48-21.5-48-48zM400 448h48v-48c0 26.5-21.5 48-48 48z"/><path d="M400 0H48C21.5 0 0 21.5 0 48v352c0 26.5 21.5 48 48 48h352c26.5 0 48-21.5 48-48V48c0-26.5-21.5-48-48-48zm-32 252c0 6.6-5.4 12-12 12h-92v92c0 6.6-5.4 12-12 12h-56c-6.6 0-12-5.4-12-12v-92H92c-6.6 0-12-5.4-12-12v-56c0-6.6 5.4-12 12-12h92V92c0-6.6 5.4-12 12-12h56c6.6 0 12 5.4 12 12v92h92c6.6 0 12 5.4 12 12v56z"/></svg>