<svg xmlns="http://www.w3.org/2000/svg" viewBox="0 0 512 448" style="enable-background:new 0 0 512 448" xml:space="preserve"><path d="M74.8 254.7c29.1-7 44.3-40.7 33.9-75.3-10.4-34.7-42.4-57.1-71.6-50.1C14.5 134.7.3 156.4 0 182.1v.6c0 7.1 1 14.5 3.3 21.9 10.4 34.7 42.4 57.1 71.5 50.1zM474.8 129.3c-29.1-7-61.1 15.5-71.6 50.1-10.4 34.6 4.8 68.4 33.9 75.3 29.1 7 61.2-15.5 71.6-50.1 10.4-34.6-4.7-68.4-33.9-75.3zM361.4 1.4c-30.9-8.2-65.6 20.5-77.5 63.9-11.8 43.4 3.6 85.2 34.6 93.4 30.9 8.1 65.6-20.5 77.5-63.9 11.9-43.5-3.6-85.3-34.6-93.4zM150.6 1.4c-30.9 8.1-46.4 49.9-34.6 93.4 11.8 43.4 46.5 72 77.5 63.9 30.9-8.1 46.4-49.9 34.6-93.4-11.9-43.5-46.6-72.1-77.5-63.9zM448 392.3C448 314.8 335.4 192 256 192S64 314.8 64 392.3c0 34.9 26.8 55.8 71.7 55.8 48.8 0 81.1-25.1 120.3-25.1 39.5 0 71.9 25.1 120.3 25.1 44.9-.1 71.7-20.9 71.7-55.8z"/></svg>