<svg version="1.1" id="Layer_1" xmlns="http://www.w3.org/2000/svg" x="0" y="0" viewBox="0 0 576 448" style="enable-background:new 0 0 576 448" xml:space="preserve"><style>.st0{fill:none}</style><path class="st0" d="m573.3 236.3-25.5 31c-4.2 5.1-11.8 5.8-16.9 1.6L295.7 75.2c-4.5-3.6-10.8-3.6-15.3 0L45.2 269c-5.1 4.2-12.7 3.5-16.9-1.6l-25.5-31C1 234.2.1 231.6 0 229v219h112c-8.8 0-16-7.2-16-16V268.1l184.4-151.8c4.5-3.6 10.8-3.6 15.3 0L480 268v164c0 8.8-7.2 16-16 16h112V229.4c-.1 2.4-1 4.9-2.7 6.9z"/><path class="st0" d="M351.9 447.6c-8.8 0-16-7.2-15.9-16V336c0-8.8-7.2-16-16-16h-64c-8.8 0-16 7.2-16 16v95.7c0 8.8-7.1 16-15.9 16L112 448h352l-112.1-.4c.1 0 0 0 0 0zM4.3 219.4 257.5 11c17.7-14.6 43.3-14.6 61 0L408 84.6V12c0-6.6 5.4-12 12-12H0v228.4c.1-3.4 1.6-6.7 4.3-9zM488 12v138.5l83.6 68.9c2.7 2.2 4.2 5.4 4.4 8.7V0H476c6.6 0 12 5.4 12 12z"/><path d="m2.7 236.3 25.5 31c4.2 5.1 11.8 5.9 16.9 1.6L280.4 75.2c4.5-3.6 10.8-3.6 15.3 0L530.9 269c5.1 4.2 12.7 3.5 16.9-1.6l25.5-31c1.7-2.1 2.6-4.5 2.7-7v-1.2c-.2-3.3-1.6-6.4-4.4-8.7l-83.6-69V12c0-6.6-5.4-12-12-12h-56c-6.6 0-12 5.4-12 12v72.6L318.5 11c-17.7-14.6-43.3-14.6-61 0L4.3 219.4C1.5 221.7 0 225 0 228.3v.6c.1 2.7 1 5.3 2.7 7.4z"/><path d="M480 432V268L295.7 116.2c-4.5-3.6-10.8-3.6-15.3 0L96 268.1V432c0 8.8 7.2 16 16 16l112.1-.3c8.8 0 15.9-7.2 15.9-16V336c0-8.8 7.2-16 16-16h64c8.8 0 16 7.2 16 16v95.6c0 8.8 7.1 16 15.9 16h.1l112 .3c8.8.1 16-7.1 16-15.9z"/></svg>